<svg xmlns="http://www.w3.org/2000/svg" viewBox="0 0 439.49 157.99">
    <defs>
        <style>.d{fill:#0095ff;}</style>
    </defs>
    <g id="a" />
    <g id="b">
        <g id="c">
            <g>
                <polygon class="d" points="132.4 157.99 151.61 157.99 202.14 35.99 182.93 35.99 159.1 95.05 135.28 35.99 116.06 35.99 149.77 117.36 132.4 157.99" />
                <path class="d" d="M415.69,95.69c-4.95,6.27-12.61,10.31-21.2,10.31-12.58,0-23.18-8.65-26.16-20.31h70.66c.33-2.18,.5-4.42,.5-6.69,0-24.81-20.19-45-45-45s-45,20.19-45,45,20.19,45,45,45c18.92,0,35.13-11.74,41.78-28.31h-20.58Zm-21.2-43.69c11.24,0,20.89,6.9,24.95,16.69h-49.9c4.06-9.79,13.71-16.69,24.95-16.69Z" />
                <path class="d" d="M0,27V122H18v-50h50v-18H18V27c0-4.97,4.03-9,9-9h47V0H27C12.09,0,0,12.09,0,27Z" />
                <rect class="d" x="88" y="0" width="18" height="122" />
                <path class="d" d="M302.49,34.08c-10.75,0-20.41,4.74-27.01,12.24-5.61-7.43-14.51-12.24-24.53-12.24-7.86,0-15.02,2.95-20.45,7.81v-5.89h-18V122.08h18v-52c0-9.92,8.07-18,18-18s18,8.08,18,18v52h18v-52c0-9.92,8.07-18,18-18s18,8.08,18,18v52h18v-52c0-19.85-16.15-36-36-36Z" />
            </g>
        </g>
    </g>
</svg>